<svg xmlns="http://www.w3.org/2000/svg" width="17" height="16.999" viewBox="0 0 17 16.999">
  <path id="Shape_1" data-name="Shape 1" d="M84.687,717H78.313A5.313,5.313,0,0,1,73,711.686v-6.374A5.313,5.313,0,0,1,78.313,700h6.375A5.313,5.313,0,0,1,90,705.312v6.374A5.313,5.313,0,0,1,84.687,717Zm3.719-11.687a3.723,3.723,0,0,0-3.719-3.719H78.313a3.723,3.723,0,0,0-3.719,3.719v6.374a3.722,3.722,0,0,0,3.719,3.719h6.375a3.722,3.722,0,0,0,3.719-3.719Zm-2.337-.816a.566.566,0,1,1,.566-.566A.566.566,0,0,1,86.069,704.5ZM81.5,712.749a4.25,4.25,0,1,1,4.25-4.25A4.25,4.25,0,0,1,81.5,712.749Zm0-6.906a2.656,2.656,0,1,0,2.656,2.656A2.659,2.659,0,0,0,81.5,705.843Z" transform="translate(-73 -700)" fill="#fff"/>
</svg>
