<svg xmlns="http://www.w3.org/2000/svg" width="9" height="16" viewBox="0 0 9 16">
  <path id="Shape_2" data-name="Shape 2" d="M85.661,660,83.5,660a3.716,3.716,0,0,0-3.992,3.938v1.816H77.34a.333.333,0,0,0-.34.326v2.63a.334.334,0,0,0,.34.327h2.17v6.638a.332.332,0,0,0,.339.326h2.832a.333.333,0,0,0,.339-.326v-6.638h2.538a.333.333,0,0,0,.339-.327v-2.63a.322.322,0,0,0-.1-.231.348.348,0,0,0-.24-.1H83.021v-1.539c0-.74.183-1.116,1.186-1.116h1.454a.333.333,0,0,0,.339-.326v-2.443A.334.334,0,0,0,85.661,660Z" transform="translate(-77 -659.999)" fill="#fff"/>
</svg>
